<svg xmlns="http://www.w3.org/2000/svg" version="1.1" xmlns:xlink="http://www.w3.org/1999/xlink" xmlns:svgjs="http://svgjs.dev/svgjs" width="1000" height="1000"><style>
    #light-icon {
      display: inline;
    }
    #dark-icon {
      display: none;
    }

    @media (prefers-color-scheme: dark) {
      #light-icon {
        display: none;
      }
      #dark-icon {
        display: inline;
      }
    }
  </style><g id="light-icon"><svg xmlns="http://www.w3.org/2000/svg" version="1.1" xmlns:xlink="http://www.w3.org/1999/xlink" xmlns:svgjs="http://svgjs.dev/svgjs" width="1000" height="1000"><g><g transform="matrix(1.9203362708525236,0,0,1.9203362708525236,21.1370645198229,0)"><svg xmlns="http://www.w3.org/2000/svg" version="1.1" xmlns:xlink="http://www.w3.org/1999/xlink" xmlns:svgjs="http://svgjs.dev/svgjs" width="498.72821" height="520.74213"><svg xmlns="http://www.w3.org/2000/svg" xml:space="preserve" viewBox="0 0 498.72821 520.74213">
  <path fill="#536b7c" stroke="#000" stroke-linecap="round" stroke-linejoin="round" stroke-width="8.15688" d="M242.45 277.757c-5.046 0-9.137-4.091-9.137-9.137v-21.483c0-21.954 17.862-39.816 39.816-39.816h192.179c11.878 0 21.542-9.664 21.542-21.542v-72.696c0-11.878-9.664-21.542-21.542-21.542H16.013c-5.046 0-22.231704-9.370495-22.231704-14.416495 0-5.046 17.185704-3.857505 22.231704-3.857505h449.296c21.954 0 39.816 17.862 39.816 39.816v72.695c0 21.954-17.862 39.816-39.816 39.816h-192.18c-11.878 0-21.542 9.663-21.542 21.542v21.483c0 5.047-4.091 9.138-9.137 9.138z" transform="matrix(.7335291 .64603763 -.65417958 .74046322 169.1543657 -22.47419927)"></path>
  <path fill="#fff" stroke="#000" stroke-linecap="round" stroke-linejoin="round" stroke-width="8.20564" d="M421.855 0H63.044C50.629 0 40.561 10.069 40.561 22.484v119.844c0 12.415 10.068 22.484 22.484 22.484h358.811c12.415 0 22.483-10.069 22.483-22.484V22.484C444.337 10.069 434.27 0 421.855 0Z" transform="matrix(.7335291 .64603763 -.65417958 .74046322 169.1543657 -22.47419927)"></path>
  <path fill="#00a6ff" stroke="#000" stroke-linecap="round" stroke-linejoin="round" stroke-width="26.2303" d="m444.337 22.484.95755 71.054988c-67.296 0-41.73304 36.779342-109.03004 36.779342s-77.09928-76.567147-144.39633-76.60056c-69.9287-.03472-82.29074 60.48626-149.585747 60.48626L40.561 82.404v-59.92C40.561 10.069 50.629 0 63.044 0h358.811c12.415 0 22.3147 10.069851 22.482 22.484z" transform="matrix(.7335291 .64603763 -.65417958 .74046322 169.1543657 -22.47419927)"></path>
  <path fill="#0082c7" stroke="#000" stroke-linecap="round" stroke-linejoin="round" stroke-width="8.22192" d="M272.81394 483.14144c.14126 7.68772-5.38426 14.01529-12.22218 14.02637l-37.2138.0602c-6.83791.0115-12.34616-6.29863-12.18388-13.98684l4.04578-200.86956 27.03792-.0438 27.03792-.0438z" transform="matrix(.7335291 .64603763 -.65417958 .74046322 169.1543657 -22.47419927)"></path>
  <path d="m176.7567666 366.50071102-39.7240788-34.87068386c-2.91451768-2.55882341-2.91139997-7.30417208.00738227-10.59893251 2.91874376-3.29480756 7.6482456-3.8916246 10.56295473-1.33301902l39.72405626 34.87066406c2.9145252 2.55883001 2.9114282 7.30417026-.00737475 10.59893911-2.91875037 3.29481507-7.6482315 3.8916237-10.56293972 1.33303222z"></path>
</svg></svg></g></g></svg></g><g id="dark-icon"><svg xmlns="http://www.w3.org/2000/svg" version="1.1" xmlns:xlink="http://www.w3.org/1999/xlink" xmlns:svgjs="http://svgjs.dev/svgjs" width="1000" height="1000"><g clip-path="url(#SvgjsClipPath1071)"><rect width="1000" height="1000" fill="#e8faff"></rect><g transform="matrix(1.7283026437672713,0,0,1.7283026437672713,69.0233580678406,50)"><svg xmlns="http://www.w3.org/2000/svg" version="1.1" xmlns:xlink="http://www.w3.org/1999/xlink" xmlns:svgjs="http://svgjs.dev/svgjs" width="498.72821" height="520.74213"><svg xmlns="http://www.w3.org/2000/svg" xml:space="preserve" viewBox="0 0 498.72821 520.74213">
  <path fill="#536b7c" stroke="#000" stroke-linecap="round" stroke-linejoin="round" stroke-width="8.15688" d="M242.45 277.757c-5.046 0-9.137-4.091-9.137-9.137v-21.483c0-21.954 17.862-39.816 39.816-39.816h192.179c11.878 0 21.542-9.664 21.542-21.542v-72.696c0-11.878-9.664-21.542-21.542-21.542H16.013c-5.046 0-22.231704-9.370495-22.231704-14.416495 0-5.046 17.185704-3.857505 22.231704-3.857505h449.296c21.954 0 39.816 17.862 39.816 39.816v72.695c0 21.954-17.862 39.816-39.816 39.816h-192.18c-11.878 0-21.542 9.663-21.542 21.542v21.483c0 5.047-4.091 9.138-9.137 9.138z" transform="matrix(.7335291 .64603763 -.65417958 .74046322 169.1543657 -22.47419927)"></path>
  <path fill="#fff" stroke="#000" stroke-linecap="round" stroke-linejoin="round" stroke-width="8.20564" d="M421.855 0H63.044C50.629 0 40.561 10.069 40.561 22.484v119.844c0 12.415 10.068 22.484 22.484 22.484h358.811c12.415 0 22.483-10.069 22.483-22.484V22.484C444.337 10.069 434.27 0 421.855 0Z" transform="matrix(.7335291 .64603763 -.65417958 .74046322 169.1543657 -22.47419927)"></path>
  <path fill="#00a6ff" stroke="#000" stroke-linecap="round" stroke-linejoin="round" stroke-width="26.2303" d="m444.337 22.484.95755 71.054988c-67.296 0-41.73304 36.779342-109.03004 36.779342s-77.09928-76.567147-144.39633-76.60056c-69.9287-.03472-82.29074 60.48626-149.585747 60.48626L40.561 82.404v-59.92C40.561 10.069 50.629 0 63.044 0h358.811c12.415 0 22.3147 10.069851 22.482 22.484z" transform="matrix(.7335291 .64603763 -.65417958 .74046322 169.1543657 -22.47419927)"></path>
  <path fill="#0082c7" stroke="#000" stroke-linecap="round" stroke-linejoin="round" stroke-width="8.22192" d="M272.81394 483.14144c.14126 7.68772-5.38426 14.01529-12.22218 14.02637l-37.2138.0602c-6.83791.0115-12.34616-6.29863-12.18388-13.98684l4.04578-200.86956 27.03792-.0438 27.03792-.0438z" transform="matrix(.7335291 .64603763 -.65417958 .74046322 169.1543657 -22.47419927)"></path>
  <path d="m176.7567666 366.50071102-39.7240788-34.87068386c-2.91451768-2.55882341-2.91139997-7.30417208.00738227-10.59893251 2.91874376-3.29480756 7.6482456-3.8916246 10.56295473-1.33301902l39.72405626 34.87066406c2.9145252 2.55883001 2.9114282 7.30417026-.00737475 10.59893911-2.91875037 3.29481507-7.6482315 3.8916237-10.56293972 1.33303222z"></path>
</svg></svg></g></g><defs><clipPath id="SvgjsClipPath1071"><rect width="1000" height="1000" x="0" y="0" rx="150" ry="150"></rect></clipPath></defs></svg></g></svg>