<?xml version="1.0" encoding="UTF-8" standalone="no"?>
<!-- Uploaded to: SVG Repo, www.svgrepo.com, Generator: SVG Repo Mixer Tools -->

<svg
   height="206.2724"
   width="779.63263"
   version="1.1"
   id="Layer_1"
   viewBox="0 0 498.96488 132.01434"
   xml:space="preserve"
   sodipodi:docname="paint-roller-fixed.svg"
   inkscape:version="1.4 (e7c3feb100, 2024-10-09)"
   xmlns:inkscape="http://www.inkscape.org/namespaces/inkscape"
   xmlns:sodipodi="http://sodipodi.sourceforge.net/DTD/sodipodi-0.dtd"
   xmlns:xlink="http://www.w3.org/1999/xlink"
   xmlns="http://www.w3.org/2000/svg"
   xmlns:svg="http://www.w3.org/2000/svg"><sodipodi:namedview
   id="namedview1"
   pagecolor="#ffffff"
   bordercolor="#666666"
   borderopacity="1.0"
   inkscape:showpageshadow="2"
   inkscape:pageopacity="0.0"
   inkscape:pagecheckerboard="0"
   inkscape:deskcolor="#d1d1d1"
   inkscape:zoom="0.97875"
   inkscape:cx="354.53384"
   inkscape:cy="104.21456"
   inkscape:window-width="1600"
   inkscape:window-height="831"
   inkscape:window-x="0"
   inkscape:window-y="0"
   inkscape:window-maximized="1"
   inkscape:current-layer="Layer_1" /><defs
   id="defs7"><linearGradient
     id="linearGradient17"
     inkscape:collect="always"><stop
       style="stop-color:#000000;stop-opacity:1;"
       offset="0"
       id="stop17" /><stop
       style="stop-color:#0091ff;stop-opacity:1;"
       offset="1"
       id="stop18" /></linearGradient><linearGradient
     id="linearGradient14"
     inkscape:collect="always"><stop
       style="stop-color:#000000;stop-opacity:1;"
       offset="0"
       id="stop14" /><stop
       style="stop-color:#000000;stop-opacity:0;"
       offset="1"
       id="stop15" /></linearGradient><rect
     x="77.650063"
     y="126.69221"
     width="198.21201"
     height="221.71136"
     id="rect11" /><rect
     x="33.716476"
     y="248.27586"
     width="725.79486"
     height="226.92924"
     id="rect10" /><rect
     x="17.369093"
     y="249.29758"
     width="645.72156"
     height="210.47253"
     id="rect8" /><linearGradient
     inkscape:collect="always"
     xlink:href="#linearGradient14"
     id="linearGradient15"
     x1="40.561001"
     y1="82.405998"
     x2="444.33899"
     y2="82.405998"
     gradientUnits="userSpaceOnUse" /><linearGradient
     inkscape:collect="always"
     xlink:href="#linearGradient17"
     id="linearGradient18"
     x1="186.60573"
     y1="212.53035"
     x2="118.3314"
     y2="212.53035"
     gradientUnits="userSpaceOnUse" /></defs>







<g
   id="layer2"
   style="fill:#0091ff;fill-opacity:1;stroke:#000000;stroke-width:5.86368;stroke-dasharray:none;stroke-opacity:1"
   transform="translate(-7.019022,-175.67518)"><path
     d="m 73.150391,288.85274 q 5.8125,-21.46875 12.84375,-43.59375 7.03125,-22.125 17.437499,-52.875 10.5,-30.84375 14.34375,-42.65625 1.125,-1.875 1.5,-2.25 h 15.75 q 5.53125,0 16.3125,-0.1875 10.78125,-0.1875 16.3125,-0.1875 h 15.75 q 1.40625,0 2.34375,0.0937 0.9375,0 2.25,0.1875 1.3125,0.1875 2.0625,0.5625 0.84375,0.375 1.40625,1.125 0.5625,0.75 0.5625,1.78125 l 43.21875,136.96875 q 0,1.875 -1.40625,2.53125 -1.3125,0.75 -5.0625,0.75 h -8.625 q -3.75,0 -11.15625,0.0937 -7.40625,0.0937 -11.15625,0.0937 -1.125,0 -4.59375,0.0937 -3.375,0.1875 -5.71875,0.0937 -2.34375,0 -5.25,-0.28125 -2.8125,-0.1875 -4.59375,-1.03125 -1.6875,-0.75 -2.15625,-2.0625 v -6.1875 q -0.9375,-4.6875 -3.28125,-8.625 -2.34375,-3.9375 -4.96875,-3.9375 h -32.25 l -4.875,19.875 q -1.03125,2.25 -10.5,2.25 h -7.5 q -4.03125,0 -12,0.28125 -7.968749,0.28125 -11.999999,0.28125 h -2.625 q -1.5,0 -4.78125,0.0937 -3.1875,0.0937 -4.96875,0.0937 -0.75,-0.75 -2.625,-3.375 z m 65.062499,-56.90625 2.625,4.40625 h 6.1875 q 7.5,0 13.6875,-0.84375 6.28125,-0.9375 6.28125,-2.90625 l -12.09375,-54 q -1.6875,0 -4.59375,6.375 -2.8125,6.375 -4.59375,14.4375 z"
     id="text11"
     style="font-stretch:ultra-condensed;font-size:192px;line-height:1.25;font-family:'Bowlby One SC';-inkscape-font-specification:'Bowlby One SC, Ultra-Condensed';font-variant-ligatures:none;white-space:pre;fill:url(#linearGradient18);stroke-width:10.4977;stroke-linecap:round;stroke-linejoin:round"
     transform="matrix(0.56738699,0,0,0.54988523,369.53133,123.11054)"
     aria-label="A" /><path
     d="m 30.341797,410.43672 q 0,-2.625 3.375,-7.875 7.96875,-12.1875 22.78125,-35.4375 14.8125,-23.25 17.34375,-27.1875 -26.4375,-45.46875 -40.125,-67.875 v -0.9375 q 0,-1.03125 1.125,-1.875 6,0 17.8125,0.28125 11.8125,0.28125 17.8125,0.28125 1.59375,-0.0937 4.40625,0.0937 2.90625,0.0937 3.84375,0.0937 h 6.5625 q 2.0625,-0.1875 6.5625,-0.1875 1.21875,0.28125 3.75,4.59375 2.53125,4.3125 5.062503,10.03125 l 9.46875,22.3125 q 0.28125,-0.5625 10.03125,-21.5625 l 3.5625,-7.5 q 3.5625,-7.875 4.875,-7.875 0.0937,0 0.1875,0.0937 0.1875,0 0.46875,0.0937 0.28125,0.0937 0.46875,0.1875 4.875,-0.1875 16.5,-0.5625 11.625,-0.46875 20.15625,-0.65625 8.53125,-0.28125 16.59375,-0.28125 2.625,0.5625 2.625,4.125 v 1.125 q -33.09375,52.3125 -42.1875,67.125 l 18.75,28.78125 q 4.6875,7.3125 13.40625,20.90625 8.71875,13.59375 11.15625,17.4375 v 1.875 q 0,3.375 -5.8125,3.375 -7.59375,0 -22.3125,0.1875 -14.71875,0.1875 -21.75,0.1875 h -4.5 q -4.96875,0 -7.5,-1.875 l -17.15625,-36.28125 q -0.75,1.59375 -2.0625,4.78125 -1.21875,3.09375 -2.53125,6.09375 -1.21875,2.90625 -2.8125,6.5625 -1.593753,3.5625 -3.281253,6.65625 -1.59375,3.09375 -3.375,5.90625 -1.6875,2.8125 -3.5625,4.78125 -1.875,2.0625 -3.65625,2.8125 -21,-0.375 -30.75,-0.375 -4.03125,0 -11.53125,0.0937 -7.5,0.0937 -11.53125,0.0937 -2.25,-0.84375 -2.25,-2.625 z m 298.875003,0.375 q -2.0625,2.0625 -8.71875,2.4375 -6.5625,0.375 -16.21875,-0.1875 -9.65625,-0.5625 -10.3125,-0.5625 -6.375,0 -9.1875,-0.1875 h -9.375 q -2.0625,-0.65625 -3.46875,-6.09375 -1.40625,-5.53125 -2.8125,-15.75 -1.3125,-10.3125 -1.40625,-10.96875 -0.375,-9.28125 -3,-12.1875 -2.625,-3 -9.5625,-3 h -4.125 v 45.75 q -0.1875,1.125 -1.96875,1.875 -1.78125,0.75 -5.15625,0.9375 -3.28125,0.28125 -5.90625,0.28125 -2.53125,0.0937 -6.75,0 -4.21875,-0.0937 -5.15625,-0.0937 h -13.5 q -11.4375,0 -17.25,0.1875 -1.3125,-0.5625 -2.625,-1.3125 v -139.875 q 0,-2.625 7.5,-2.625 h 81.75 q 21.28125,0.5625 32.34375,10.125 11.15625,9.5625 11.15625,27 0,22.6875 -22.875,33.1875 4.21875,1.3125 7.59375,3.65625 3.375,2.34375 5.625,5.0625 2.25,2.625 3.9375,6.375 1.6875,3.75 2.625,7.03125 0.9375,3.28125 1.59375,7.78125 0.75,4.5 1.03125,7.78125 0.28125,3.28125 0.65625,7.875 0.46875,4.5 0.75,7.125 v 8.25 q 0.28125,1.5 1.6875,4.21875 1.5,2.71875 1.875,4.03125 0,1.875 -0.75,1.875 z m -78.75,-101.625 q 0,5.625 0.0937,8.34375 0.0937,2.71875 1.03125,7.125 0.9375,4.40625 2.8125,6.28125 3.9375,0 7.40625,-0.84375 3.5625,-0.84375 6.84375,-2.71875 3.28125,-1.875 5.15625,-5.53125 1.96875,-3.75 1.96875,-8.90625 0,-2.90625 -1.03125,-5.0625 -1.03125,-2.25 -3,-3.5625 -1.96875,-1.3125 -3.9375,-2.0625 -1.875,-0.84375 -4.6875,-1.125 -2.71875,-0.375 -4.3125,-0.46875 -1.59375,-0.0937 -3.84375,-0.0937 h -2.25 q -1.40625,0.65625 -1.875,2.625 -0.375,1.96875 -0.375,6 z m 179.71875,28.125 q -0.375,2.53125 -1.5,11.90625 -1.03125,9.375 -2.34375,19.6875 -1.3125,10.3125 -2.90625,20.71875 -1.59375,10.3125 -3.65625,17.0625 -2.0625,6.75 -4.125,6.75 -4.03125,0 -11.90625,-0.1875 -7.875,-0.1875 -11.90625,-0.1875 -18.09375,0 -33.375,0.75 -1.3125,-0.65625 -2.34375,-2.0625 -0.9375,-1.40625 -1.59375,-3.375 -0.5625,-1.96875 -0.9375,-3.46875 -0.28125,-1.59375 -0.65625,-3.9375 -0.28125,-2.4375 -0.46875,-3.28125 -16.21875,-77.34375 -20.0625,-94.125 l -6.5625,-31.5 q 0,-2.625 2.625,-3.5625 2.25,0.1875 7.125,0.1875 h 7.5 q 2.25,0 6.46875,-0.1875 4.21875,-0.1875 6.09375,-0.1875 1.78125,-0.0937 5.25,0.0937 3.46875,0.0937 4.5,0.0937 h 5.4375 q 0.9375,0.1875 2.8125,0.1875 h 2.8125 q 1.6875,0.46875 3.375,6.46875 1.6875,6 3.1875,16.5 1.5,10.5 2.4375,18.375 0.9375,7.78125 2.0625,18.9375 1.21875,11.0625 1.21875,11.25 l 11.90625,-71.34375 q 4.5,0.375 7.125,0.375 h 5.8125 q 7.59375,0 21.9375,-0.0937 14.4375,-0.0937 21.5625,-0.0937 1.96875,0 2.4375,1.5 l 11.71875,77.53125 q 1.78125,-21.375 4.40625,-39.09375 l 5.625,-38.0625 q 0.65625,-2.25 6.5625,-2.25 h 4.5 q 1.125,-0.0937 3.46875,0.0937 2.4375,0.0937 3.46875,0.0937 h 8.25 q 3.46875,0 7.78125,0.0937 4.40625,0.0937 4.59375,0.0937 h 11.0625 q 0.84375,0 1.125,1.3125 0.28125,1.21875 0.46875,4.125 l -30.1875,138 q -1.875,0.1875 -4.5,0.1875 -2.625,0 -4.78125,-0.0937 -2.15625,0 -4.96875,-0.0937 -2.8125,0 -4.59375,0 -3.84375,0 -11.71875,-0.0937 -7.78125,-0.0937 -11.71875,-0.0937 -0.46875,0 -18.28125,0.5625 z m 297.09375,38.0625 q 0,1.6875 0.1875,5.25 0.1875,3.46875 0.28125,6.65625 0.0937,3.1875 0.0937,7.125 0.0937,3.84375 -0.28125,7.03125 -0.28125,3.09375 -0.9375,5.90625 -0.65625,2.71875 -2.0625,4.21875 -1.3125,1.5 -3.28125,1.5 h -42.75 q -4.5,-3.46875 -4.5,-25.875 0,-8.15625 0.0937,-19.59375 0.0937,-11.53125 0.0937,-16.40625 v -6.5625 q 0,-0.84375 -0.1875,-3.1875 -0.0937,-2.4375 0,-3.75 -3.75,13.59375 -9.1875,38.90625 -5.4375,25.3125 -7.5,33.84375 -0.9375,2.625 -8.625,2.625 h -33.1875 q -6.09375,0 -7.125,-3.1875 l -9,-39.1875 q -1.21875,-6 -2.71875,-12.46875 -1.40625,-6.46875 -3.375,-14.71875 -1.96875,-8.25 -2.90625,-12.1875 -1.125,30 -1.125,45.75 v 16.5 q 0,11.0625 0.1875,16.6875 -0.5625,2.0625 -2.0625,2.0625 h -8.8125 q -5.53125,0 -16.21875,0.0937 -10.6875,0.0937 -16.21875,0.0937 -5.0625,0 -5.0625,-1.6875 v -139.125 q 0,-0.84375 0.375,-1.40625 0.46875,-0.65625 1.3125,-0.9375 0.9375,-0.375 1.78125,-0.5625 0.84375,-0.1875 2.15625,-0.1875 1.3125,-0.0937 2.15625,-0.0937 0.84375,-0.0937 2.15625,0 1.3125,0 1.6875,0 h 11.0625 q 26.71875,0 37.59375,0.75 10.96875,0.75 16.78125,0.75 2.25,12.5625 7.125,37.3125 l 7.125,37.3125 15,-75.75 q 0,0 0.75,0.1875 0.75,0.1875 1.125,0.1875 10.03125,0 29.625,-0.28125 19.59375,-0.28125 29.625,-0.28125 h 13.875 q 2.625,0.28125 2.625,5.25 2.0625,90.84375 2.25,101.4375 z"
     id="text10"
     style="font-stretch:ultra-condensed;font-size:192px;line-height:1.25;font-family:'Bowlby One SC';-inkscape-font-specification:'Bowlby One SC, Ultra-Condensed';font-variant-ligatures:none;white-space:pre;mix-blend-mode:darken;stroke-width:11.4274;stroke-linecap:round;stroke-linejoin:round"
     transform="matrix(0.56796892,0,0,0.5591231,-6.9689718,52.430749)"
     aria-label="XRWM" /></g><g
   id="layer1"
   transform="matrix(0.00337856,-0.24842738,-0.2560911,-0.0031051,425.82852,128.38672)"><path
     style="fill:#536b7c;fill-opacity:1;stroke:#000000;stroke-width:18.6938;stroke-linecap:round;stroke-linejoin:round;stroke-dasharray:none;stroke-opacity:1"
     d="m 242.45,277.757 c -5.046,0 -9.137,-4.091 -9.137,-9.137 v -21.483 c 0,-21.954 17.862,-39.816 39.816,-39.816 h 192.179 c 11.878,0 21.542,-9.664 21.542,-21.542 v -72.696 c 0,-11.878 -9.664,-21.542 -21.542,-21.542 H 16.013 c -5.046,0 -22.231704,-9.370495 -22.231704,-14.416495 0,-5.046 17.185704,-3.857505 22.231704,-3.857505 h 449.296 c 21.954,0 39.816,17.862 39.816,39.816 v 72.695 c 0,21.954 -17.862,39.816 -39.816,39.816 h -192.18 c -11.878,0 -21.542,9.663 -21.542,21.542 v 21.483 c 0,5.047 -4.091,9.138 -9.137,9.138 z"
     id="path1"
     sodipodi:nodetypes="sssssssssssssssssss" /><path
     style="fill:#ffffff;fill-opacity:1;stroke:url(#linearGradient15);stroke-width:21.2969;stroke-linecap:round;stroke-dasharray:none"
     d="M 421.855,0 H 63.044 C 50.629,0 40.561,10.069 40.561,22.484 v 59.922 21.419 38.503 c 0,12.415 10.068,22.484 22.484,22.484 h 358.811 c 12.415,0 22.483,-10.069 22.483,-22.484 V 82.406 54.381 22.484 C 444.337,10.069 434.27,0 421.855,0 Z"
     id="path2" /><path
     style="fill:#00a6ff;fill-opacity:1;stroke:#000000;stroke-width:26.2303;stroke-linecap:round;stroke-linejoin:round;stroke-dasharray:none;stroke-opacity:1"
     d="m 444.337,22.484 -0.57437,77.85008 c -67.296,0 -56.482,26.60433 -123.779,26.60433 -67.297,0 -61.61772,-82.527475 -128.91477,-82.560888 -69.9287,-0.03472 -72.94131,80.007938 -140.236316,80.007938 L 40.561,82.404 V 22.484 C 40.561,10.069 50.629,0 63.044,0 h 358.811 c 12.415,0 22.57359,10.069449 22.482,22.484 z"
     id="path4"
     sodipodi:nodetypes="scssccssss" /><path
     style="fill:#ffffff;fill-opacity:1;stroke-width:0.833198"
     d="m 272.81394,483.14144 c 0.14126,7.68772 -5.38426,14.01529 -12.22218,14.02637 l -37.2138,0.0602 c -6.83791,0.0115 -12.34616,-6.29863 -12.18388,-13.98684 l 4.04578,-200.86956 27.03792,-0.0438 27.03792,-0.0438 z"
     id="path5" /><path
     style="fill:#bdbdbd;fill-opacity:1;stroke-width:0.833198"
     d="m 228.4359,483.21333 4.04658,-200.86956 -17.24262,0.028 -4.04658,200.86956 c -0.16226,7.68822 5.34598,13.99792 12.1839,13.98684 l 17.24184,-0.028 c -6.83714,0.0115 -12.34538,-6.29864 -12.18312,-13.98684 z"
     id="path6" /><path
     style="fill:#000000;fill-opacity:1;stroke-width:0.833198"
     d="m 269.30546,290.34993 -54.07662,0.0876 c -3.96782,0.006 -7.17975,-3.60016 -7.17366,-8.05508 0.006,-4.45492 3.2279,-8.07192 7.19572,-8.07834 l 54.0766,-0.0876 c 3.96782,-0.006 7.17976,3.60014 7.17366,8.05507 -0.006,4.45493 -3.22789,8.07192 -7.1957,8.07835 z"
     id="path7" /></g></svg>
